{"title":"Entourage.2015.SWESUB.DVDRip.x264-SWAXXON","uid":12547518,"size":878811622,"categoryP":"video","categoryS":"movies","magnet":"?xt=urn:btih:6ee4b75e414902c655e523d3167dd8e7d0392ca3&amp;dn=Entourage.2015.SWESUB.DVDRip.x264-SWAXXON&amp;tr=udp%3A%2F%2Ftracker.leechers-paradise.org%3A6969&amp;tr=udp%3A%2F%2Fzer0day.ch%3A1337&amp;tr=udp%3A%2F%2Fopen.demonii.com%3A1337&amp;tr=udp%3A%2F%2Ftracker.coppersurfer.tk%3A6969&amp;tr=udp%3A%2F%2Fexodus.desync.com%3A6969","seeders":1,"leechers":0,"uploader":"SWAXXON","files":2,"time":1444498080,"description":"Format                                   : Matroska\r\nFormat version                           : Version 4 / Version 2\r\nFile size                                : 838 MiB\r\nDuration                                 : 1h 40mn\r\nOverall bit rate mode                    : Variable\r\nOverall bit rate                         : 1 170 Kbps\r\nEncoded date                             : UTC 2015-10-09 21:09:17\r\nWriting application                      : mkvmerge v8.3.0 ('Over the Horizon') 32bit\r\nWriting library                          : libebml v1.3.1 + libmatroska v1.4.2\r\nDURATION                                 : 01:39:25.031000000\r\nNUMBER_OF_FRAMES                         : 1591\r\nNUMBER_OF_BYTES                          : 2301583\r\n_STATISTICS_WRITING_APP                  : mkvmerge v8.3.0 ('Over the Horizon') 32bit\r\n_STATISTICS_WRITING_DATE_UTC             : 2015-10-09 21:09:17\r\n_STATISTICS_TAGS                         : BPS DURATION NUMBER_OF_FRAMES NUMBER_OF_BYTES\r\n\r\nVideo\r\nID                                       : 1\r\nFormat                                   : AVC\r\nFormat/Info                              : Advanced Video Codec\r\nFormat profile                           :   \r\nFormat settings, CABAC                   : Yes\r\nFormat settings, ReFrames                : 5 frames\r\nCodec ID                                 : V_MPEG4/ISO/AVC\r\nDuration                                 : 1h 40mn\r\nBit rate mode                            : Variable\r\nBit rate                                 : 1 034 Kbps\r\nMaximum bit rate                         : 62.5 Mbps\r\nWidth                                    : 688 pixels\r\nHeight                                   : 280 pixels\r\nDisplay aspect ratio                     : 2.457\r\nFrame rate mode                          : Constant\r\nFrame rate                               : 25.000 fps\r\nColor space                              : YUV\r\nChroma subsampling                       : 4:2:0\r\nBit depth                                : 8 bits\r\nScan type                                : Progressive\r\nBits/(Pixel*Frame)                       : 0.215\r\nStream size                              : 741 MiB (88%)\r\n\r\n\r\nAudio\r\nID                                       : 2\r\nFormat                                   : MPEG Audio\r\nFormat version                           : Version 1\r\nFormat profile                           : Layer 3\r\nMode                                     : Joint stereo\r\nMode extension                           : MS Stereo\r\nCodec ID                                 : A_MPEG/L3\r\nCodec ID/Hint                            : MP3\r\nDuration                                 : 1h 40mn\r\nBit rate mode                            : Constant\r\nBit rate                                 : 112 Kbps\r\nChannel(s)                               : 2 channels\r\nSampling rate                            : 44.1 KHz\r\nCompression mode                         : Lossy\r\nStream size                              : 80.2 MiB (10%)\r\nWriting library                          : LAME3.99r\r\nEncoding settings                        : -m j -V 4 -q 2 -lowpass 15.6 -b 112\r\nDefault                                  : Yes\r\nForced                                   : No\r\n\r\nText #1\r\nID                                       : 3\r\nFormat                                   : VobSub\r\nMuxing mode                              : zlib\r\nCodec ID                                 : S_VOBSUB\r\nCodec ID/Info                            : Picture based subtitle format used on DVDs\r\nLanguage                                 : Swedish\r\nDefault                                  : Yes\r\nForced                                   : No\r\n\r\nText #2\r\nID                                       : 4\r\nFormat                                   : VobSub\r\nMuxing mode                              : zlib\r\nCodec ID                                 : S_VOBSUB\r\nCodec ID/Info                            : Picture based subtitle format used on DVDs\r\nLanguage                                 : Norwegian\r\nDefault                                  : No\r\nForced                                   : No\r\n\r\nText #3\r\nID                                       : 5\r\nFormat                                   : VobSub\r\nMuxing mode                              : zlib\r\nCodec ID                                 : S_VOBSUB\r\nCodec ID/Info                            : Picture based subtitle format used on DVDs\r\nLanguage                                 : Danish\r\nDefault                                  : No\r\nForced                                   : No\r\n\r\nText #4\r\nID                                       : 6\r\nFormat                                   : VobSub\r\nMuxing mode                              : zlib\r\nCodec ID                                 : S_VOBSUB\r\nCodec ID/Info                            : Picture based subtitle format used on DVDs\r\nLanguage                                 : Finnish\r\nDefault                                  : No\r\nForced                                   : No","torrent":{"xt":"urn:btih:6ee4b75e414902c655e523d3167dd8e7d0392ca3","amp;dn":"Entourage.2015.SWESUB.DVDRip.x264-SWAXXON","amp;tr":["udp%3A%2F%2Ftracker.leechers-paradise.org%3A6969","udp%3A%2F%2Fzer0day.ch%3A1337","udp%3A%2F%2Fopen.demonii.com%3A1337","udp%3A%2F%2Ftracker.coppersurfer.tk%3A6969","udp%3A%2F%2Fexodus.desync.com%3A6969"],"infoHash":"6ee4b75e414902c655e523d3167dd8e7d0392ca3","infoHashBuffer":{"type":"Buffer","data":[110,228,183,94,65,73,2,198,85,229,35,211,22,125,216,231,208,57,44,163]},"announce":[],"urlList":[]}}